0
SECTION
2
HEADER
9
$INSUNITS
70
4
9
$ACADVER
1
AC1014
9
$HANDSEED
5
FFFF
0
ENDSEC
0
SECTION
2
TABLES
0
TABLE
2
VPORT
5
8
100
AcDbSymbolTable
0
ENDTAB
0
TABLE
2
LTYPE
5
5
100
AcDbSymbolTable
0
LTYPE
5
14
100
AcDbSymbolTableRecord
100
AcDbLinetypeTableRecord
2
BYBLOCK
70
0
0
LTYPE
5
15
100
AcDbSymbolTableRecord
100
AcDbLinetypeTableRecord
2
BYLAYER
70
0
0
ENDTAB
0
TABLE
2
LAYER
5
2
100
AcDbSymbolTable
70
2
0
LAYER
5
50
100
AcDbSymbolTableRecord
100
AcDbLayerTableRecord
2
0
70
0
6
CONTINUOUS
0
ENDTAB
0
TABLE
2
STYLE
5
3
100
AcDbSymbolTable
70
1
0
STYLE
5
11
100
AcDbSymbolTableRecord
100
AcDbTextStyleTableRecord
2
STANDARD
70
0
0
ENDTAB
0
TABLE
2
VIEW
5
6
100
AcDbSymbolTable
70
0
0
ENDTAB
0
TABLE
2
UCS
5
7
100
AcDbSymbolTable
70
0
0
ENDTAB
0
TABLE
2
APPID
5
9
100
AcDbSymbolTable
70
2
0
APPID
5
12
100
AcDbSymbolTableRecord
100
AcDbRegAppTableRecord
2
ACAD
70
0
0
ENDTAB
0
TABLE
2
DIMSTYLE
5
A
100
AcDbSymbolTable
70
1
0
ENDTAB
0
TABLE
2
BLOCK_RECORD
5
1
100
AcDbSymbolTable
70
1
0
BLOCK_RECORD
5
1F
100
AcDbSymbolTableRecord
100
AcDbBlockTableRecord
2
*MODEL_SPACE
0
BLOCK_RECORD
5
1B
100
AcDbSymbolTableRecord
100
AcDbBlockTableRecord
2
*PAPER_SPACE
0
ENDTAB
0
ENDSEC
0
SECTION
2
BLOCKS
0
BLOCK
5
20
100
AcDbEntity
100
AcDbBlockBegin
2
*MODEL_SPACE
0
ENDBLK
5
21
100
AcDbEntity
100
AcDbBlockEnd
0
BLOCK
5
1C
100
AcDbEntity
100
AcDbBlockBegin
2
*PAPER_SPACE
0
ENDBLK
5
1D
100
AcDbEntity
100
AcDbBlockEnd
0
ENDSEC
0
SECTION
2
ENTITIES
0
LWPOLYLINE
5
100
100
AcDbEntity
8
0
100
AcDbPolyline
90
22
70
1
43
0.0
10
26.66666666666665
20
-77
10
-26.666666666666671
20
-77
10
-26.666666666666661
20
-80
10
-80
20
-80
10
-80
20
-26.666666666666661
10
-77.000000000000014
20
-26.666666666666661
10
-77.000000000000014
20
26.666666666666671
10
-80
20
26.666666666666671
10
-80
20
80
10
-26.666666666666661
20
80
10
-26.666666666666664
20
77
10
26.666666666666657
20
77
10
26.666666666666661
20
80
10
80
20
80
10
80.000000000000014
20
77
10
77.000000000000014
20
77
10
77.000000000000014
20
26.666666666666671
10
80.000000000000014
20
26.666666666666671
10
80.000000000000014
20
-26.666666666666661
10
77.000000000000014
20
-26.666666666666661
10
77.000000000000014
20
-80
10
26.666666666666661
20
-80
0
LWPOLYLINE
5
101
100
AcDbEntity
8
0
100
AcDbPolyline
90
4
70
1
43
0.0
10
9.9999999999999982
20
-30.079999999999991
10
-10
20
-30.079999999999991
10
-10
20
-50.079999999999991
10
9.9999999999999982
20
-50.079999999999991
0
LINE
5
102
100
AcDbEntity
8
0
100
AcDbLine
10
80.079999999999984
20
-80.079999999999984
30
0
11
26.586666666666659
21
-80.079999999999984
31
0
0
LINE
5
103
100
AcDbEntity
8
0
100
AcDbLine
10
80.000000000000014
20
26.58666666666667
30
0
11
80.000000000000014
21
-26.586666666666659
31
0
0
LWPOLYLINE
5
104
100
AcDbEntity
8
0
100
AcDbPolyline
90
22
70
1
43
0.0
10
-80.079999999999984
20
80.079999999999984
10
-26.586666666666659
20
80.079999999999984
10
-26.586666666666666
20
77.079999999999998
10
26.586666666666655
20
77.079999999999998
10
26.586666666666659
20
80.079999999999984
10
80.079999999999984
20
80.079999999999984
10
80.080000000000013
20
76.920000000000002
10
77.080000000000013
20
76.920000000000002
10
77.080000000000013
20
26.74666666666667
10
80.080000000000013
20
26.74666666666667
10
80.080000000000013
20
-26.746666666666663
10
77.080000000000013
20
-26.746666666666663
10
77.080000000000013
20
-80.079999999999984
10
26.586666666666659
20
-80.079999999999984
10
26.586666666666652
20
-77.079999999999998
10
-26.58666666666667
20
-77.079999999999998
10
-26.586666666666659
20
-80.079999999999984
10
-80.079999999999984
20
-80.079999999999984
10
-80.079999999999984
20
-26.586666666666659
10
-77.080000000000013
20
-26.586666666666659
10
-77.080000000000013
20
26.58666666666667
10
-80.079999999999984
20
26.58666666666667
0
ENDSEC
0
SECTION
2
OBJECTS
0
DICTIONARY
5
C
100
AcDbDictionary
3
ACAD_GROUP
350
D
3
ACAD_MLINESTYLE
350
17
0
DICTIONARY
5
D
100
AcDbDictionary
0
DICTIONARY
5
1A
330
C
100
AcDbDictionary
0
DICTIONARY
5
17
100
AcDbDictionary
0
ENDSEC
0
EOF
